<svg class="img-fluid" id="outputsvg" xmlns="http://www.w3.org/2000/svg" style="transform: matrix(0.769231, 0, 0, 0.769231, 0, 0); transform-origin: 50% 50%; cursor: move; max-height: none; transition: transform 200ms ease-in-out;" width="501" height="501" viewBox="0 0 5010 5010"><g id="l6jKyD5lNBf2blgc3o9H5Qb" fill="rgb(0,0,0)" style="transform: none;"><g style="transform: none;"></g></g><g id="l59f79HIFIn5MgFE9CMbcu9" fill="rgb(8,8,8)" style="transform: none;"><g style="transform: none;"></g></g><g id="l3kumgWin43IXyW3nALvKHC" fill="rgb(16,16,16)" style="transform: none;"><g style="transform: none;"></g></g><g id="l3kQQ2tu1uACM5bzK6mX1bl" class="svg_color" style="transform: none;"><g style="transform: none;"><path id="pfTBRO6gq" d="M2450 4986 c-19 -7 -372 -150 -785 -318 -412 -168 -941 -383 -1175 -478 -446 -181 -480 -199 -480 -256 0 -44 47 -77 210 -144 85 -35 162 -63 170 -62 13 1 415 163 1795 725 247 101 251 102 330 101 76 0 89 -4 255 -73 519 -216 1844 -751 1860 -751 31 0 331 127 354 149 23 24 27 81 6 106 -7 9 -30 25 -49 34 -30 15 -807 332 -2151 878 -140 56 -266 103 -280 103 -14 -1 -41 -7 -60 -14z"></path><path id="psy3aRM9I" d="M1275 3885 c-666 -271 -1220 -500 -1232 -509 -27 -20 -37 -64 -23 -100 11 -29 59 -54 262 -135 l107 -43 1013 414 1013 413 95 0 95 0 975 -399 c536 -219 993 -405 1014 -412 38 -14 42 -13 190 47 83 33 162 67 177 75 62 31 54 125 -12 156 -106 50 -2430 988 -2446 987 -10 -1 -562 -223 -1228 -494z"></path><path id="pmUw1RZ0T" d="M2470 3743 c-8 -3 -350 -142 -760 -308 -410 -167 -939 -382 -1177 -478 -237 -97 -445 -183 -461 -191 -37 -19 -62 -53 -62 -83 0 -44 41 -72 200 -137 781 -321 904 -369 919 -359 9 6 27 31 40 56 37 73 32 133 -20 243 -54 113 -62 180 -29 245 28 54 221 248 272 272 65 31 129 23 258 -33 63 -27 123 -50 133 -50 9 0 52 17 95 39 42 21 106 48 142 60 36 12 70 25 77 29 6 4 32 59 57 122 59 148 76 174 128 202 39 20 59 23 204 26 194 4 233 -4 290 -62 32 -32 48 -62 74 -138 44 -130 71 -162 162 -189 40 -11 96 -35 125 -51 75 -42 137 -37 252 20 104 52 168 56 247 17 59 -30 247 -225 270 -282 23 -55 14 -116 -36 -223 -57 -122 -60 -182 -14 -256 23 -38 36 -49 55 -48 37 2 1049 420 1072 443 30 29 28 85 -3 115 -14 13 -117 60 -230 106 -113 45 -653 265 -1200 487 -547 223 -1011 407 -1030 409 -19 2 -42 1 -50 -3z"></path><path id="pLwx5UcFD" d="M2381 3209 c-11 -5 -36 -56 -70 -141 -28 -74 -59 -145 -67 -156 -10 -14 -48 -32 -114 -52 -54 -17 -148 -55 -209 -85 -60 -30 -120 -55 -133 -55 -12 0 -87 27 -165 61 l-144 60 -49 -41 c-62 -52 -140 -142 -140 -162 0 -8 25 -72 55 -142 31 -72 55 -142 55 -162 0 -21 -16 -65 -44 -117 -25 -45 -63 -136 -85 -201 -22 -66 -46 -125 -53 -133 -8 -7 -79 -39 -158 -71 l-145 -58 0 -140 0 -139 137 -56 c76 -30 149 -66 163 -79 13 -12 32 -48 40 -79 27 -95 54 -162 101 -250 29 -55 44 -96 44 -120 0 -21 -22 -86 -55 -161 -30 -69 -55 -133 -55 -144 0 -20 153 -182 180 -191 9 -3 79 22 156 55 76 33 149 60 161 60 13 0 67 -23 121 -50 54 -28 143 -66 198 -83 54 -18 109 -38 120 -45 15 -8 40 -57 79 -154 31 -79 64 -149 73 -156 18 -14 239 -17 260 -3 7 4 38 68 68 142 30 74 61 144 69 156 10 15 46 31 117 53 56 17 150 56 210 86 59 30 117 54 128 54 11 0 83 -27 161 -60 77 -33 145 -60 150 -60 16 0 189 178 189 194 0 8 -25 72 -55 142 -33 78 -55 142 -55 164 0 24 17 71 50 136 28 54 65 144 82 199 18 59 39 107 52 118 12 11 82 43 156 73 73 30 137 59 142 66 10 16 10 249 0 265 -4 6 -71 37 -150 68 -91 37 -148 65 -157 79 -8 11 -28 64 -45 116 -17 52 -53 139 -80 194 -31 61 -50 111 -50 133 0 19 24 90 55 163 30 71 55 135 55 143 0 7 -42 55 -94 105 l-94 93 -48 -20 c-27 -10 -91 -37 -143 -60 -52 -23 -106 -41 -121 -41 -14 0 -73 24 -131 53 -57 29 -150 68 -205 85 -56 18 -108 40 -117 50 -8 9 -38 76 -66 147 -28 72 -55 136 -60 144 -6 10 -40 13 -130 15 -67 0 -130 -2 -140 -5z m259 -440 c519 -64 933 -458 1015 -963 74 -456 -122 -907 -507 -1163 -451 -300 -1064 -241 -1454 142 -174 172 -282 378 -330 630 -25 135 -15 376 20 504 116 417 474 752 891 835 140 27 237 31 365 15z"></path><path id="pRuwGdOi1" d="M2310 2571 c-232 -50 -443 -185 -586 -374 -63 -84 -138 -243 -166 -352 -32 -126 -32 -353 0 -469 48 -175 130 -320 249 -441 152 -153 340 -252 545 -285 100 -16 312 -8 398 15 416 113 709 470 737 896 20 312 -138 647 -395 837 -86 65 -234 136 -337 163 -115 31 -329 36 -445 10z m335 -346 c219 -46 413 -232 469 -451 9 -34 16 -74 16 -89 l0 -26 29 20 c66 48 155 11 155 -63 0 -40 -33 -84 -139 -185 -86 -81 -112 -96 -150 -87 -32 8 -230 202 -244 239 -12 30 -1 69 26 99 20 23 85 24 117 2 l24 -15 -9 43 c-22 100 -96 208 -185 269 -54 37 -130 64 -209 74 -99 12 -125 32 -125 99 0 80 72 103 225 71z m-518 -458 c102 -102 113 -117 113 -149 0 -75 -71 -117 -134 -80 l-34 20 12 -52 c44 -183 190 -306 397 -335 61 -8 78 -15 98 -37 19 -23 22 -35 18 -68 -8 -58 -35 -76 -111 -76 -130 0 -285 59 -384 146 -99 86 -179 220 -202 339 -18 92 -15 88 -57 65 -52 -28 -70 -25 -110 15 -30 30 -34 40 -29 66 8 40 47 89 147 183 74 69 84 76 122 76 39 0 47 -6 154 -113z"></path></g></g><g id="l7bSjJOhvzobIbnUavnTdrk" fill="rgb(49,49,49)" style="transform: none;"><g style="transform: none;"></g></g><g id="lmdlpe2gyK7yPqUtVzfbFc" fill="rgb(66,66,66)" style="transform: none;"><g style="transform: none;"></g></g><g id="l6V9qVGSDdEb7o3Z0gGK0HJ" fill="rgb(90,90,90)" style="transform: none;"><g style="transform: none;"></g></g><g id="l2zDdeorg4LbTn6JXoSRNyj" fill="rgb(123,123,123)" style="transform: none;"><g style="transform: none;"></g></g><g id="l6pOBiUTQXvWpchZV1Kc6n6" fill="rgb(165,165,165)" style="transform: none;"><g style="transform: none;"></g></g><g id="l7ZfSnM31f40H7yeEu70gAc" fill="rgb(173,173,173)" style="transform: none;"><g style="transform: none;"></g></g><g id="l1Gn9FG48IZoQAtOjIgfkit" fill="rgb(181,181,181)" style="transform: none;"><g style="transform: none;"></g></g><g id="l1lpO9OmwR4Y4LbTcMGnh9W" fill="rgb(197,197,197)" style="transform: none;"><g style="transform: none;"></g></g><g id="l40SvhKfIEOGG4z8bPs4GZ0" fill="rgb(206,206,206)" style="transform: none;"><g style="transform: none;"></g></g><g id="l1pRI2n6rrS7CgRTrpz5eJI" fill="rgb(222,222,222)" style="transform: none;"><g style="transform: none;"></g></g><g id="lr52LvL16j17xBTPN5MUri" fill="rgb(230,230,230)" style="transform: none;"><g style="transform: none;"></g></g><g id="l5lnyX2CsCt99G26Sq8dHFL" fill="rgb(255,255,255)" style="transform: none;"><g style="transform: none;"></g></g></svg>